<svg xmlns="http://www.w3.org/2000/svg" viewBox="0 0 690.49 113.49"><defs><style>.cls-1{fill:#777;}.cls-2{fill:#c6c6c6;}.cls-3{fill:#fff;}</style></defs><g id="Layer_2" data-name="Layer 2"><g id="Layer_1-2" data-name="Layer 1"><rect class="cls-1" x="318.49" width="372" height="95" rx="10.48"/><path class="cls-2" d="M51,72.29H23.35l-4.44,13.1H0L26.83,11.24H47.75L74.58,85.39H55.46ZM46.37,58.35,37.18,31.2,28.1,58.35Z"/><path class="cls-2" d="M135.16,32.52q6.18,6.7,6.18,18.44V85.39h-18v-32q0-5.91-3.06-9.19a12,12,0,0,0-16.48,0q-3.06,3.29-3.06,9.19v32H82.71V26.45h18.07v7.81a19.13,19.13,0,0,1,7.39-6.18,23.56,23.56,0,0,1,10.46-2.27Q129,25.81,135.16,32.52Z"/><path class="cls-2" d="M212.11,26.45V85.39H194.05v-8a19.8,19.8,0,0,1-7.45,6.29A22.76,22.76,0,0,1,176.2,86a23.38,23.38,0,0,1-11.94-3,20.4,20.4,0,0,1-8-8.72,29.66,29.66,0,0,1-2.85-13.42V26.45h18v32q0,5.92,3.06,9.2a10.75,10.75,0,0,0,8.24,3.27A10.91,10.91,0,0,0,191,67.65q3.06-3.29,3.06-9.2v-32Z"/><path class="cls-2" d="M250.46,28.14a22.37,22.37,0,0,1,10.88-2.54,24.42,24.42,0,0,1,13.2,3.7,25.65,25.65,0,0,1,9.35,10.56,35.24,35.24,0,0,1,3.44,16,35.56,35.56,0,0,1-3.44,16,25.9,25.9,0,0,1-9.35,10.67,24.13,24.13,0,0,1-13.2,3.75,22.47,22.47,0,0,1-10.83-2.54,19.84,19.84,0,0,1-7.34-6.55v36.34H225.11v-87h18.06v8.34A19.64,19.64,0,0,1,250.46,28.14ZM265.2,45.2A12.42,12.42,0,0,0,256,41.34a12.21,12.21,0,0,0-9.14,3.91q-3.75,3.91-3.75,10.67t3.75,10.67a12.64,12.64,0,0,0,18.33,0q3.81-4,3.81-10.73C269,51.31,267.69,47.77,265.2,45.2Z"/><path class="cls-3" d="M340.13,85a21,21,0,0,1-8.72-7.08A18.58,18.58,0,0,1,328,67.78h7.82a14.88,14.88,0,0,0,4.75,9.46q4.23,4.07,12.36,4.06,7.5,0,11.89-3.85a12.45,12.45,0,0,0,4.38-9.77A11.55,11.55,0,0,0,366.8,60a14.86,14.86,0,0,0-6-4.33,93.54,93.54,0,0,0-9.93-3.12,86.24,86.24,0,0,1-11.72-3.91,18.7,18.7,0,0,1-7.4-5.91q-3.06-4-3.06-10.88a18.07,18.07,0,0,1,3-10.2,19.81,19.81,0,0,1,8.34-7,28.7,28.7,0,0,1,12.36-2.54q10.25,0,16.53,5a18.9,18.9,0,0,1,7.24,12.94h-8a13.25,13.25,0,0,0-5-8.08c-2.81-2.36-6.62-3.54-11.4-3.54A17.24,17.24,0,0,0,340.6,22a11.71,11.71,0,0,0-4.43,9.66,11.16,11.16,0,0,0,2.43,7.5,15.45,15.45,0,0,0,6.07,4.34,89.82,89.82,0,0,0,9.88,3.16,88.33,88.33,0,0,1,11.62,4,19,19,0,0,1,7.5,6q3.06,4,3.06,10.78A19,19,0,0,1,374,77.18a20.11,20.11,0,0,1-8.14,7.5A27.23,27.23,0,0,1,353,87.54,30.57,30.57,0,0,1,340.13,85Z"/><path class="cls-3" d="M401.61,84a26.33,26.33,0,0,1-10.25-10.36A31.61,31.61,0,0,1,387.61,58a31.32,31.32,0,0,1,3.8-15.69,26.63,26.63,0,0,1,10.36-10.35,29.66,29.66,0,0,1,14.68-3.65,30,30,0,0,1,14.74,3.65,26.16,26.16,0,0,1,10.35,10.35A31.62,31.62,0,0,1,445.29,58a31.41,31.41,0,0,1-3.8,15.63A26.38,26.38,0,0,1,431,84a30.29,30.29,0,0,1-14.79,3.64A29.35,29.35,0,0,1,401.61,84Zm25.19-5.39a19.78,19.78,0,0,0,7.87-7.82,25.29,25.29,0,0,0,3-12.83,25.78,25.78,0,0,0-3-12.84,19.37,19.37,0,0,0-7.81-7.81,22.84,22.84,0,0,0-21.13,0A19,19,0,0,0,398,45.12,26.1,26.1,0,0,0,395.11,58,26,26,0,0,0,398,70.79a19.11,19.11,0,0,0,7.71,7.82,21.84,21.84,0,0,0,10.51,2.59A22.18,22.18,0,0,0,426.8,78.61Z"/><path class="cls-3" d="M466.2,8.63V86.8h-7.39V8.63Z"/><path class="cls-3" d="M483.16,42.27A25.28,25.28,0,0,1,493,31.92a27.81,27.81,0,0,1,14.21-3.65,25.86,25.86,0,0,1,14.21,3.81A22.1,22.1,0,0,1,530,41.8V29.12h7.4V86.8H530V74a23.12,23.12,0,0,1-8.71,9.78,25.6,25.6,0,0,1-14.21,3.85,27.24,27.24,0,0,1-14.1-3.7,25.55,25.55,0,0,1-9.82-10.45,33.24,33.24,0,0,1-3.54-15.64A32.91,32.91,0,0,1,483.16,42.27Zm44,3.43a20.35,20.35,0,0,0-7.76-8.13,21.22,21.22,0,0,0-10.83-2.85,21.9,21.9,0,0,0-11,2.74,19.41,19.41,0,0,0-7.66,8,25.9,25.9,0,0,0-2.8,12.41,26.26,26.26,0,0,0,2.8,12.41,19.59,19.59,0,0,0,7.66,8.14,21.63,21.63,0,0,0,11,2.8,21.13,21.13,0,0,0,10.83-2.86,20.35,20.35,0,0,0,7.76-8.13A25.39,25.39,0,0,0,530,58,25.45,25.45,0,0,0,527.15,45.7Z"/><path class="cls-3" d="M598.24,34.45q6.56,6.4,6.55,18.54V86.8H597.5v-33q0-9.41-4.7-14.37t-12.83-5q-8.34,0-13.31,5.28t-5,15.53V86.8h-7.4V29.12h7.4v9.82a18.89,18.89,0,0,1,7.92-8.08,24.31,24.31,0,0,1,11.72-2.8Q591.69,28.06,598.24,34.45Z"/><path class="cls-3" d="M652.33,86.8,628.56,60.92V86.8h-7.39V8.63h7.39V54.89L651.8,29.12h10.35L634.79,57.85,662.36,86.8Z"/><path class="cls-3" d="M671.76,16.65a5.3,5.3,0,0,1-1.58-3.9,5.16,5.16,0,0,1,1.58-3.86,5.5,5.5,0,0,1,7.61,0A5.13,5.13,0,0,1,681,12.75a5.26,5.26,0,0,1-1.58,3.9,5.35,5.35,0,0,1-7.61,0Zm7.51,12.47V86.8h-7.4V29.12Z"/></g></g></svg>