<?xml version="1.0" encoding="utf-8"?>
<!-- Generator: Adobe Illustrator 25.2.1, SVG Export Plug-In . SVG Version: 6.00 Build 0)  -->
<svg version="1.1" id="Layer_1" xmlns="http://www.w3.org/2000/svg" xmlns:xlink="http://www.w3.org/1999/xlink" x="0px" y="0px"
	 viewBox="0 0 1080 720" style="enable-background:new 0 0 1080 720;" xml:space="preserve">
<style type="text/css">
	.st0{fill:url(#SVGID_1_);}
	.st1{fill:url(#SVGID_2_);}
	.st2{fill:url(#SVGID_3_);}
	.st3{fill:url(#SVGID_4_);}
	.st4{fill:url(#SVGID_5_);}
	.st5{fill:url(#SVGID_6_);}
	.st6{fill:url(#SVGID_7_);}
	.st7{fill:url(#SVGID_8_);}
	.st8{fill:url(#SVGID_9_);}
	.st9{fill:url(#SVGID_10_);}
	.st10{fill:url(#SVGID_11_);}
	.st11{opacity:0.58;fill:url(#SVGID_12_);enable-background:new    ;}
	.st12{opacity:0.58;fill:url(#SVGID_13_);enable-background:new    ;}
	.st13{fill:url(#SVGID_14_);}
	.st14{fill:url(#SVGID_15_);}
	.st15{fill:url(#SVGID_16_);}
	.st16{fill:url(#SVGID_17_);}
	.st17{fill:#3126CA;}
	.st18{fill:url(#SVGID_18_);}
	.st19{opacity:0.96;fill:url(#SVGID_19_);enable-background:new    ;}
	.st20{fill:url(#SVGID_20_);}
	.st21{fill:url(#SVGID_21_);}
	.st22{fill:url(#SVGID_22_);}
	.st23{opacity:0.5;fill:url(#SVGID_23_);enable-background:new    ;}
	.st24{fill:url(#SVGID_24_);}
	.st25{fill:url(#SVGID_25_);}
	.st26{opacity:0.96;fill:url(#SVGID_26_);enable-background:new    ;}
	.st27{fill:url(#SVGID_27_);}
	.st28{fill:url(#SVGID_28_);}
	.st29{fill:url(#SVGID_29_);}
	.st30{fill:url(#SVGID_30_);}
	.st31{fill:url(#SVGID_31_);}
	.st32{fill:url(#SVGID_32_);}
	.st33{fill:url(#SVGID_33_);}
	.st34{fill:url(#SVGID_34_);}
	.st35{fill:url(#SVGID_35_);}
	.st36{enable-background:new    ;}
	.st37{fill:#FFFFFF;}
	.st38{opacity:0.63;fill:#23236D;enable-background:new    ;}
	.st39{opacity:0.63;}
	.st40{fill:#23236D;}
	.st41{fill:url(#SVGID_36_);}
	.st42{opacity:0.35;fill:#AE77D4;enable-background:new    ;}
	.st43{fill:url(#SVGID_37_);}
	.st44{fill:#6B3C99;}
	.st45{fill:none;stroke:#7B42A8;stroke-linecap:round;stroke-miterlimit:10;}
	.st46{fill:url(#SVGID_38_);}
	.st47{fill:url(#SVGID_39_);}
	.st48{fill:url(#SVGID_40_);}
	.st49{fill:url(#SVGID_41_);}
	.st50{fill:url(#SVGID_42_);}
	.st51{fill:url(#SVGID_43_);}
	.st52{fill:url(#SVGID_44_);}
	.st53{fill:url(#SVGID_45_);}
	.st54{fill:url(#SVGID_46_);}
	.st55{fill:url(#SVGID_47_);}
	.st56{fill:url(#SVGID_48_);}
	.st57{fill:url(#SVGID_49_);}
	.st58{opacity:0.31;fill:#241E6B;enable-background:new    ;}
	.st59{fill:url(#SVGID_50_);}
	.st60{fill:url(#SVGID_51_);}
	.st61{fill:url(#SVGID_52_);}
	.st62{fill:url(#SVGID_53_);}
	.st63{fill:url(#SVGID_54_);}
	.st64{fill:url(#SVGID_55_);}
	.st65{fill:url(#SVGID_56_);}
	.st66{fill:url(#SVGID_57_);}
	.st67{fill:url(#SVGID_58_);}
	.st68{fill:url(#SVGID_59_);}
	.st69{fill:url(#SVGID_60_);}
	.st70{fill:url(#SVGID_61_);}
	.st71{fill:url(#SVGID_62_);}
	.st72{fill:url(#SVGID_63_);}
	.st73{fill:url(#SVGID_64_);}
	.st74{fill:url(#SVGID_65_);}
	.st75{fill:url(#SVGID_66_);}
	.st76{fill:url(#SVGID_67_);}
	.st77{fill:url(#SVGID_68_);}
	.st78{fill:url(#SVGID_69_);}
	.st79{fill:url(#SVGID_70_);}
	.st80{fill:url(#SVGID_71_);}
</style>
<g>
	<g id="bg">
		
			<linearGradient id="SVGID_1_" gradientUnits="userSpaceOnUse" x1="12.3794" y1="350.0912" x2="1064.3176" y2="350.0912" gradientTransform="matrix(1 0 0 -1 0 722)">
			<stop  offset="0" style="stop-color:#220E5E"/>
			<stop  offset="1" style="stop-color:#16003E"/>
		</linearGradient>
		<path class="st0" d="M1055,285.6c0,0-46-131.6-295-157.6S239.3,109.5,91.1,248.7S15,554.3,214,598.2s338,37,568-9.1
			S1094,435.1,1055,285.6z"/>
		
			<radialGradient id="SVGID_2_" cx="517.3" cy="539.49" r="2.17" gradientTransform="matrix(1 0 0 1 0 -360)" gradientUnits="userSpaceOnUse">
			<stop  offset="0" style="stop-color:#FFFFFF"/>
			<stop  offset="0.16" style="stop-color:#E3FAFE"/>
			<stop  offset="0.41" style="stop-color:#BEF3FD"/>
			<stop  offset="0.64" style="stop-color:#A3EEFC"/>
			<stop  offset="0.84" style="stop-color:#93EBFB"/>
			<stop  offset="1" style="stop-color:#8DEAFB"/>
		</radialGradient>
		<circle class="st1" cx="517.3" cy="179.5" r="2.2"/>
		<g>
			
				<image style="overflow:visible;opacity:0.75;enable-background:new    ;" width="28" height="28" xlink:href="D4065403.png"  transform="matrix(1 0 0 1 526.41 545.33)">
			</image>
			
				<radialGradient id="SVGID_3_" cx="540.54" cy="162.32" r="4.45" gradientTransform="matrix(1 0 0 -1 0 722)" gradientUnits="userSpaceOnUse">
				<stop  offset="0" style="stop-color:#D686D4"/>
				<stop  offset="1" style="stop-color:#AA42FF"/>
			</radialGradient>
			<circle class="st2" cx="540.5" cy="559.7" r="4.5"/>
		</g>
		<g>
			
				<image style="overflow:visible;opacity:0.75;enable-background:new    ;" width="24" height="23" xlink:href="D4065401.png"  transform="matrix(1 0 0 1 860.53 454.56)">
			</image>
			
				<radialGradient id="SVGID_4_" cx="872.55" cy="256.01" r="2.22" gradientTransform="matrix(1 0 0 -1 0 722)" gradientUnits="userSpaceOnUse">
				<stop  offset="0" style="stop-color:#D686D4"/>
				<stop  offset="1" style="stop-color:#AA42FF"/>
			</radialGradient>
			<circle class="st3" cx="872.5" cy="466" r="2.2"/>
		</g>
		<g>
			
				<image style="overflow:visible;opacity:0.75;enable-background:new    ;" width="23" height="23" xlink:href="D4065407.png"  transform="matrix(1 0 0 1 330 256)">
			</image>
			
				<radialGradient id="SVGID_5_" cx="341.26" cy="454.5" r="2.22" gradientTransform="matrix(1 0 0 -1 0 722)" gradientUnits="userSpaceOnUse">
				<stop  offset="0" style="stop-color:#D686D4"/>
				<stop  offset="1" style="stop-color:#AA42FF"/>
			</radialGradient>
			<circle class="st4" cx="341.3" cy="267.5" r="2.2"/>
		</g>
		<g>
			
				<linearGradient id="SVGID_6_" gradientUnits="userSpaceOnUse" x1="235.1167" y1="260.6317" x2="263.8066" y2="232.8016" gradientTransform="matrix(0.86 -0.52 -0.52 -0.86 68.03 522.73)">
				<stop  offset="0" style="stop-color:#FDB9A2"/>
				<stop  offset="0.86" style="stop-color:#FA6DE0"/>
			</linearGradient>
			<path class="st5" d="M130.7,172.2c-0.3,1.9,0.3,3.8,1.5,5.3c5.5,6.8,28.2,8.9,35.1,9.4l0.5-7.7c0,0-7-0.5-14.3-1.7
				c-13.4-2.2-15.2-4.7-15.3-4.8c0.1,0.2,0.2,0.5,0.1,0.8L130.7,172.2z"/>
			
				<radialGradient id="SVGID_7_" cx="363.3316" cy="171.8041" r="15.29" gradientTransform="matrix(0.86 -0.52 -0.52 -0.86 68.03 522.73)" gradientUnits="userSpaceOnUse">
				<stop  offset="0" style="stop-color:#ED85F7"/>
				<stop  offset="1" style="stop-color:#B230F0"/>
			</radialGradient>
			<path class="st6" d="M269.4,184.6l-0.3,7.8c6.9,0.3,29.8,0.7,35.9-5.5c1.4-1.3,2.1-3.2,2.1-5.1l-7.8,0.3c0-0.3,0.1-0.6,0.2-0.8
				C297.5,183.7,283.4,185.1,269.4,184.6z"/>
			
				<linearGradient id="SVGID_8_" gradientUnits="userSpaceOnUse" x1="464.2854" y1="962.4171" x2="54.5454" y2="721.7571" gradientTransform="matrix(0.8556 -0.5162 0.5162 0.8556 -494.0166 -406.2953)">
				<stop  offset="0" style="stop-color:#FCDAFF"/>
				<stop  offset="0.56" style="stop-color:#9B44CD"/>
				<stop  offset="1" style="stop-color:#AE77D4"/>
			</linearGradient>
			<circle class="st7" cx="220.1" cy="179.6" r="55.1"/>
			
				<linearGradient id="SVGID_9_" gradientUnits="userSpaceOnUse" x1="485.6649" y1="1037.4642" x2="634.5472" y2="1037.4642" gradientTransform="matrix(0.8667 -0.4988 -0.4988 -0.8667 250.5801 1354.2272)">
				<stop  offset="0" style="stop-color:#FCDAFF"/>
				<stop  offset="0.56" style="stop-color:#9B44CD"/>
				<stop  offset="1" style="stop-color:#AE77D4"/>
			</linearGradient>
			<path class="st8" d="M134.9,166.6c-2.2,1.3-3.9,3.1-4.2,5.6l7.7,1.2c0,0.1-0.1,0.3-0.1,0.4c0.1-0.2,3.2-3.9,29.7-5.2
				c18.5-0.7,36.9-0.4,55.4,0.7c0.1,0,18.2,1.2,36.8,3.7c35.1,4.6,39,9.1,39.4,9.6c-0.1-0.2-0.1-0.4-0.1-0.6l7.8-0.1
				c0-6.2-7.4-11.3-43.2-16.3c-19.8-2.7-39.9-4.1-40.1-4.1c-21.6-1.3-43.1-1.5-59-0.6c-9.4,0.6-16.8,1.5-22.1,2.7
				C139.9,164.3,137.3,165.2,134.9,166.6z"/>
			
				<linearGradient id="SVGID_10_" gradientUnits="userSpaceOnUse" x1="455.302" y1="-10.4316" x2="502.642" y2="120.4085" gradientTransform="matrix(-0.8912 -0.4519 0.4519 -0.8912 655.5287 507.4875)">
				<stop  offset="0" style="stop-color:#894ABC"/>
				<stop  offset="1" style="stop-color:#894ABC;stop-opacity:0"/>
			</linearGradient>
			<path class="st9" d="M253.4,193.1c1-4.4,4.5-7.3,7.8-6.5c3.3,0.8,5.2,4.9,4.2,9.3c-1,4.4-4.5,7.3-7.8,6.5
				C254.2,201.6,252.4,197.5,253.4,193.1z"/>
			
				<linearGradient id="SVGID_11_" gradientUnits="userSpaceOnUse" x1="482.1542" y1="-20.5294" x2="529.4943" y2="110.3007" gradientTransform="matrix(-0.89 -0.45 0.45 -0.89 657.23 506.36)">
				<stop  offset="0" style="stop-color:#894ABC"/>
				<stop  offset="1" style="stop-color:#894ABC;stop-opacity:0"/>
			</linearGradient>
			<circle class="st10" cx="230.6" cy="210.9" r="5"/>
		</g>
		
			<linearGradient id="SVGID_12_" gradientUnits="userSpaceOnUse" x1="917.7115" y1="185.6812" x2="951.6815" y2="143.0812" gradientTransform="matrix(1 0 0 -1 0 722)">
			<stop  offset="0" style="stop-color:#B448FF"/>
			<stop  offset="0.53" style="stop-color:#5DADFE"/>
			<stop  offset="1" style="stop-color:#3750FF"/>
		</linearGradient>
		<circle class="st11" cx="944.4" cy="569.8" r="6.3"/>
		
			<linearGradient id="SVGID_13_" gradientUnits="userSpaceOnUse" x1="673.1757" y1="170.3045" x2="689.3657" y2="150.0045" gradientTransform="matrix(1 0 0 -1 0 722)">
			<stop  offset="0" style="stop-color:#B448FF"/>
			<stop  offset="0.53" style="stop-color:#5DADFE"/>
			<stop  offset="1" style="stop-color:#3750FF"/>
		</linearGradient>
		<circle class="st12" cx="685.9" cy="567.7" r="3"/>
		
			<radialGradient id="SVGID_14_" cx="136.18" cy="411.87" r="2.6" gradientTransform="matrix(1 0 0 -1 0 722)" gradientUnits="userSpaceOnUse">
			<stop  offset="0" style="stop-color:#FFFFFF"/>
			<stop  offset="0.16" style="stop-color:#E3FAFE"/>
			<stop  offset="0.41" style="stop-color:#BEF3FD"/>
			<stop  offset="0.64" style="stop-color:#A3EEFC"/>
			<stop  offset="0.84" style="stop-color:#93EBFB"/>
			<stop  offset="1" style="stop-color:#8DEAFB"/>
		</radialGradient>
		<circle class="st13" cx="136.2" cy="409.9" r="2.6"/>
		
			<radialGradient id="SVGID_15_" cx="1264.0179" cy="2043.2878" r="11.1" fx="1253.0995" fy="2043.2878" gradientTransform="matrix(0.94 -0.54 7.000000e-02 0.31 -321.12 470.03)" gradientUnits="userSpaceOnUse">
			<stop  offset="0" style="stop-color:#FFFFFF"/>
			<stop  offset="0.31" style="stop-color:#FFFDFF"/>
			<stop  offset="0.42" style="stop-color:#FEF6FF"/>
			<stop  offset="0.5" style="stop-color:#FDEBFF"/>
			<stop  offset="0.57" style="stop-color:#FBDAFF"/>
			<stop  offset="0.62" style="stop-color:#F8C4FF"/>
			<stop  offset="0.67" style="stop-color:#F5A8FF"/>
			<stop  offset="0.72" style="stop-color:#F288FF"/>
			<stop  offset="0.76" style="stop-color:#ED62FF"/>
			<stop  offset="0.79" style="stop-color:#E939FF"/>
			<stop  offset="0.82" style="stop-color:#E410FF"/>
			<stop  offset="1" style="stop-color:#6800FF;stop-opacity:0.4"/>
		</radialGradient>
		<path class="st14" d="M1002.8,429.4c0.7,3.1,30.2-17.8,28.4-18C1030.8,411.5,1001.5,424,1002.8,429.4z"/>
		
			<radialGradient id="SVGID_16_" cx="-229.05" cy="226.04" r="5.86" gradientTransform="matrix(6.123234e-17 -1 -1 -6.123234e-17 1044.52 397.47)" gradientUnits="userSpaceOnUse">
			<stop  offset="0" style="stop-color:#FFC1EA"/>
			<stop  offset="1" style="stop-color:#FFDDC2;stop-opacity:0.5"/>
		</radialGradient>
		<circle class="st15" cx="818.5" cy="626.5" r="5.9"/>
		
			<radialGradient id="SVGID_17_" cx="481.26" cy="505.75" r="5.86" gradientTransform="matrix(1 0 0 -1 0 722)" gradientUnits="userSpaceOnUse">
			<stop  offset="0" style="stop-color:#FFC1EA"/>
			<stop  offset="1" style="stop-color:#FFDDC2;stop-opacity:0.5"/>
		</radialGradient>
		<circle class="st16" cx="359.8" cy="95.2" r="5.9"/>
	</g>
	<g id="laptop">
		<g>
			<path class="st17" d="M1034.8,98.6l-7.9-13.5c-1.7-2.5-5.1-1.5-5.8,1.8l-53.9,273.8l-18.8,3.6l-10.2,13.3l31-0.4
				c3.8-0.1,7-2.8,7.8-6.5c8.8-40.7,56.5-259.6,57.5-264.2C1035.5,101.5,1035.4,99.5,1034.8,98.6z"/>
			
				<linearGradient id="SVGID_18_" gradientUnits="userSpaceOnUse" x1="955.7689" y1="589.1043" x2="339.2188" y2="239.8143" gradientTransform="matrix(1 0 0 -1 0 722)">
				<stop  offset="0" style="stop-color:#B24EE5"/>
				<stop  offset="0.1" style="stop-color:#AC4CE7"/>
				<stop  offset="0.24" style="stop-color:#9C46EB"/>
				<stop  offset="0.39" style="stop-color:#813CF2"/>
				<stop  offset="0.55" style="stop-color:#5B2FFC"/>
				<stop  offset="0.56" style="stop-color:#582EFD"/>
				<stop  offset="0.67" style="stop-color:#4B36FE"/>
				<stop  offset="0.86" style="stop-color:#3B40FF"/>
				<stop  offset="1" style="stop-color:#3543FF"/>
			</linearGradient>
			<path class="st18" d="M538.5,341.9l69.6-252.4c1.1-4.3,5-7.3,9.4-7.3l403.4,0.2c6.2,0,8.3,3.7,7.1,10l-58.5,272.8
				c-1,4.9-3.5,7.1-8.3,6.9l-413.7-17.2c-5.5-0.4-9.7-5.1-9.3-10.6C538.1,343.3,538.3,342.6,538.5,341.9z"/>
			
				<linearGradient id="SVGID_19_" gradientUnits="userSpaceOnUse" x1="1023.8719" y1="660.6562" x2="935.6918" y2="542.4062" gradientTransform="matrix(1 0 0 -1 0 722)">
				<stop  offset="0.17" style="stop-color:#EF9FF6"/>
				<stop  offset="1" style="stop-color:#D073CC;stop-opacity:0"/>
			</linearGradient>
			<path class="st19" d="M944.4,83l76.4-0.6c6.2,0,8.3,3.7,7.1,10l-14.6,68.1L944.4,83z"/>
			
				<linearGradient id="SVGID_20_" gradientUnits="userSpaceOnUse" x1="557.7898" y1="497.4558" x2="1368.0198" y2="522.0659" gradientTransform="matrix(1 0 0 -1 0 722)">
				<stop  offset="0" style="stop-color:#503AB7"/>
				<stop  offset="0.35" style="stop-color:#341A7B"/>
				<stop  offset="0.56" style="stop-color:#260A5C"/>
				<stop  offset="0.6" style="stop-color:#251061"/>
				<stop  offset="0.74" style="stop-color:#232771"/>
				<stop  offset="0.88" style="stop-color:#21357B"/>
				<stop  offset="1" style="stop-color:#213A7E"/>
			</linearGradient>
			<polygon class="st20" points="564.3,321 626.3,96.4 1002.7,97.9 951.5,338.7 			"/>
			
				<linearGradient id="SVGID_21_" gradientUnits="userSpaceOnUse" x1="802.2058" y1="743.7703" x2="770.7658" y2="348.6804" gradientTransform="matrix(1 0 0 -1 0 722)">
				<stop  offset="0" style="stop-color:#B448FF"/>
				<stop  offset="0.53" style="stop-color:#5DADFE"/>
				<stop  offset="1" style="stop-color:#3750FF"/>
			</linearGradient>
			<polygon class="st21" points="665.1,273.4 698.6,152.1 901.9,152.9 874.2,283 			"/>
			
				<linearGradient id="SVGID_22_" gradientUnits="userSpaceOnUse" x1="776.1944" y1="530.9813" x2="769.5051" y2="440.7905" gradientTransform="matrix(1 0 0 -1 0 722)">
				<stop  offset="0" style="stop-color:#B448FF"/>
				<stop  offset="0.53" style="stop-color:#5DADFE"/>
				<stop  offset="1" style="stop-color:#3750FF"/>
			</linearGradient>
			<polygon class="st22" points="872.9,282.9 808.4,195.6 758,199.9 666.5,273.5 665,273.5 665.6,271.8 757.2,198 809.4,193.5 
				809.7,193.9 874.5,281.7 874.2,283 			"/>
			
				<linearGradient id="SVGID_23_" gradientUnits="userSpaceOnUse" x1="559.6788" y1="505.3502" x2="890.2788" y2="515.3903" gradientTransform="matrix(1 0 0 -1 0 722)">
				<stop  offset="4.000000e-02" style="stop-color:#1F0F50"/>
				<stop  offset="0.26" style="stop-color:#200E52;stop-opacity:0.83"/>
				<stop  offset="0.67" style="stop-color:#230C57;stop-opacity:0.4"/>
				<stop  offset="1" style="stop-color:#260A5C;stop-opacity:0"/>
			</linearGradient>
			<path class="st23" d="M564.3,321l62-224.7c0,0-23.8,134.3,63.3,168.9c56.6,22.5,56.6,64.1,56.6,64.1L564.3,321z"/>
		</g>
		<g>
			
				<linearGradient id="SVGID_24_" gradientUnits="userSpaceOnUse" x1="818.5762" y1="479.2614" x2="916.4661" y2="174.9914" gradientTransform="matrix(0.99 0 0 -1 5.91 716.32)">
				<stop  offset="0" style="stop-color:#B448FF"/>
				<stop  offset="0.53" style="stop-color:#260AAD"/>
				<stop  offset="1" style="stop-color:#3750FF"/>
			</linearGradient>
			<path class="st24" d="M962.7,371.7l-177.9,72.8c-1.3,0.5-2.1,1.7-2.1,3v19c0,1.7,1.3,3.1,3,3.2c0.4,0,0.8-0.1,1.2-0.2l177.9-75.3
				c1.2-0.5,2-1.6,2-3v-16.5c0-1.7-1.4-3.1-3.1-3.1C963.4,371.5,963,371.6,962.7,371.7z"/>
			
				<linearGradient id="SVGID_25_" gradientUnits="userSpaceOnUse" x1="663.4907" y1="406.98" x2="663.4907" y2="164.31" gradientTransform="matrix(0.99 0 0 -1 5.91 716.32)">
				<stop  offset="0" style="stop-color:#FCDAFF"/>
				<stop  offset="0.56" style="stop-color:#9B44CD"/>
				<stop  offset="1" style="stop-color:#AE77D4"/>
			</linearGradient>
			<path class="st25" d="M551.5,350.2c0,0,411,20.6,413.7,21.3s-179.2,76-179.2,76s-0.2,0-0.3,0l-424-18.1c-2.1-0.1-1.8-2.2,0-3.2
				c24-12.5,123-49.7,181.2-74.9C545.6,350.1,548.6,350.1,551.5,350.2z"/>
			
				<linearGradient id="SVGID_26_" gradientUnits="userSpaceOnUse" x1="760.0773" y1="401.94" x2="760.0773" y2="172.95" gradientTransform="matrix(0.99 0 0 -1 5.91 716.32)">
				<stop  offset="0.17" style="stop-color:#EF9FF6"/>
				<stop  offset="1" style="stop-color:#D073CC;stop-opacity:0"/>
			</linearGradient>
			<path class="st26" d="M563.1,352.9c0,0,388,19.4,390.5,20.1s-169.2,71.7-169.2,71.7c-0.1,0-0.2,0-0.3,0l-77.5-17.9
				C706.7,426.9,561.4,352.9,563.1,352.9z"/>
			
				<linearGradient id="SVGID_27_" gradientUnits="userSpaceOnUse" x1="690.7104" y1="415.3598" x2="687.0704" y2="217.5898" gradientTransform="matrix(1 0 0 -1 0 722)">
				<stop  offset="0" style="stop-color:#B448FF"/>
				<stop  offset="0.53" style="stop-color:#5DADFE"/>
				<stop  offset="1" style="stop-color:#3750FF"/>
			</linearGradient>
			<path class="st27" d="M556.1,356.9L913,373.3c0.6,0,1.1,0.6,1.1,1.2c0,0,0,0,0,0c-0.1,1.3-0.1,1.1-1.1,1.5s-102,37-104.3,37.8
				c-1.7,0.6-3.5,0.9-5.3,0.9c-2,0-338-17.2-338-17.2c-1.2,0-1.3-2.9-0.2-3.4c11.2-5.2,42.8-18.6,83.4-36.2
				C551,357,553.6,356.7,556.1,356.9z"/>
			
				<linearGradient id="SVGID_28_" gradientUnits="userSpaceOnUse" x1="657.2807" y1="346.59" x2="656.7007" y2="333.22" gradientTransform="matrix(1 0 0 -1 0 722)">
				<stop  offset="0" style="stop-color:#B448FF"/>
				<stop  offset="0.53" style="stop-color:#5DADFE"/>
				<stop  offset="1" style="stop-color:#3750FF"/>
			</linearGradient>
			<path class="st28" d="M622.1,387.5c0,0,90.8,4.4,91.3,4.7c0.2,0.1-21.2,7.5-26.2,9.1c-0.7,0.2-1.4,0.3-2.1,0.3
				c0,0-84.6-4.1-85.3-4.1s-0.3-0.4-0.3-0.4l21.3-9.5C621.2,387.4,621.7,387.4,622.1,387.5z"/>
			
				<linearGradient id="SVGID_29_" gradientUnits="userSpaceOnUse" x1="612.5831" y1="366.2803" x2="612.0231" y2="353.2303" gradientTransform="matrix(1 0 0 -1 0 722)">
				<stop  offset="0" style="stop-color:#B448FF"/>
				<stop  offset="0.53" style="stop-color:#5DADFE"/>
				<stop  offset="1" style="stop-color:#3750FF"/>
			</linearGradient>
			<path class="st29" d="M612.2,369.1c0,0,21.3,0.6,21.8,1c0.2,0.1-14,7.6-19,9.3c-0.7,0.2-1.4,0.3-2.1,0.3c0,0-22.3-0.5-23-0.5
				s-0.3-0.4-0.3-0.4l21.3-9.5C611.3,369.1,611.8,369,612.2,369.1z"/>
			
				<linearGradient id="SVGID_30_" gradientUnits="userSpaceOnUse" x1="565.9239" y1="357.4598" x2="565.3039" y2="343.1098" gradientTransform="matrix(1 0 0 -1 0 722)">
				<stop  offset="0" style="stop-color:#B448FF"/>
				<stop  offset="0.53" style="stop-color:#5DADFE"/>
				<stop  offset="1" style="stop-color:#3750FF"/>
			</linearGradient>
			<path class="st30" d="M565.5,379.2c0,0,23.5,0.6,24,1c0.2,0.2-15.4,8.4-20.9,10.2c-0.7,0.3-1.5,0.4-2.3,0.3
				c0,0-24.5-0.5-25.3-0.5s-0.4-0.4-0.4-0.4l23.3-10.4C564.5,379.2,565,379.1,565.5,379.2z"/>
			
				<linearGradient id="SVGID_31_" gradientUnits="userSpaceOnUse" x1="560.4659" y1="368.7198" x2="559.8959" y2="355.6797" gradientTransform="matrix(1 0 0 -1 0 722)">
				<stop  offset="0" style="stop-color:#B448FF"/>
				<stop  offset="0.53" style="stop-color:#5DADFE"/>
				<stop  offset="1" style="stop-color:#3750FF"/>
			</linearGradient>
			<path class="st31" d="M560.1,366.7c0,0,21.3,0.6,21.8,0.9c0.2,0.1-14,7.6-19,9.3c-0.7,0.2-1.4,0.3-2.1,0.3c0,0-22.3-0.5-23-0.5
				s-0.3-0.4-0.3-0.4l21.3-9.5C559.2,366.6,559.6,366.6,560.1,366.7z"/>
			
				<linearGradient id="SVGID_32_" gradientUnits="userSpaceOnUse" x1="776.2123" y1="346.919" x2="775.5023" y2="330.589" gradientTransform="matrix(1 0 0 -1 0 722)">
				<stop  offset="0" style="stop-color:#B448FF"/>
				<stop  offset="0.53" style="stop-color:#5DADFE"/>
				<stop  offset="1" style="stop-color:#3750FF"/>
			</linearGradient>
			<path class="st32" d="M775,391.6c0,0,28.5,1.2,29.1,1.6c0.3,0.2-17.8,9.6-24.1,11.8c-0.8,0.3-1.7,0.4-2.6,0.4c0,0-29.7-1-30.6-1
				s-0.4-0.5-0.4-0.5l26.9-12.1C773.8,391.6,774.4,391.5,775,391.6z"/>
			
				<linearGradient id="SVGID_33_" gradientUnits="userSpaceOnUse" x1="770.0333" y1="357.6203" x2="769.4133" y2="343.1603" gradientTransform="matrix(1 0 0 -1 0 722)">
				<stop  offset="0" style="stop-color:#B448FF"/>
				<stop  offset="0.53" style="stop-color:#5DADFE"/>
				<stop  offset="1" style="stop-color:#3750FF"/>
			</linearGradient>
			<path class="st33" d="M769.6,379.2c0,0,23.6,0.7,24.2,1c0.2,0.2-15.5,8.4-21.1,10.3c-0.7,0.2-1.5,0.4-2.3,0.3
				c0,0-24.7-0.5-25.5-0.5s-0.4-0.4-0.4-0.4l23.6-10.6C768.6,379.2,769.1,379.1,769.6,379.2z"/>
			<path class="st17" d="M359.8,430.8l0.7,12.9c0.2,1.4,1.4,2.5,2.9,2.6l422.4,23.2l0.2-22l-424.1-19.1
				C360,428.5,359.6,429,359.8,430.8z"/>
		</g>
		
			<linearGradient id="SVGID_34_" gradientUnits="userSpaceOnUse" x1="701.8982" y1="528.8277" x2="956.1781" y2="590.3477" gradientTransform="matrix(1 0 0 -1 0 722)">
			<stop  offset="0" style="stop-color:#FFDDC2"/>
			<stop  offset="1" style="stop-color:#3BC4C4"/>
		</linearGradient>
		<polygon class="st34" points="698.6,152.1 901.9,152.9 769.3,218.8 		"/>
		<g>
			
				<linearGradient id="SVGID_35_" gradientUnits="userSpaceOnUse" x1="890.4233" y1="584.0462" x2="936.4133" y2="502.9862" gradientTransform="matrix(1 0 0 -1 5.538908e-03 722.0081)">
				<stop  offset="0" style="stop-color:#D073CC"/>
				<stop  offset="0.4" style="stop-color:#B842B8"/>
				<stop  offset="1" style="stop-color:#1D0074"/>
			</linearGradient>
			<path class="st35" d="M896.2,141.8c10.1-3.5,20.8,1,23.9,10.1c3.1,9.1-2.5,19.2-12.5,22.7c-10.1,3.5-20.8-1-23.9-10.1
				C880.5,155.5,886.2,145.3,896.2,141.8z"/>
			<g class="st36">
				<path class="st37" d="M901,152.4l-3.4,0.8l-0.5-3.2l5.7-1.5h2.9l-2,17.7h-4.2L901,152.4z"/>
			</g>
		</g>
		<path class="st38" d="M769.5,347l-53.7-1.6c-1,0-1.7-0.8-1.7-1.8c0-0.1,0-0.2,0-0.3l0.2-1.1c0.2-0.8,0.9-1.5,1.8-1.4l53.7,1.6
			c1,0,1.7,0.8,1.7,1.8c0,0.1,0,0.2,0,0.2l-0.2,1.1C771.1,346.4,770.4,347,769.5,347z"/>
		<g>
			<g class="st39">
				<polygon class="st40" points="924.7,403.3 924.5,396.8 939.1,390.6 939.3,397.1 				"/>
			</g>
			<polygon class="st40" points="926.6,401.6 926.5,397.1 936.5,392.9 936.7,397.4 			"/>
			<g class="st39">
				<polygon class="st40" points="905.7,411.6 905.5,405.1 920.2,398.9 920.4,405.4 				"/>
			</g>
			
				<ellipse transform="matrix(0.7424 -0.6699 0.6699 0.7424 -18.5984 734.2899)" class="st40" cx="945.7" cy="391.3" rx="3.2" ry="2.5"/>
			<polygon class="st40" points="907.7,409.9 907.5,405.4 917.6,401.1 917.7,405.6 			"/>
		</g>
	</g>
	<g id="astronaut">
		<g>
			
				<linearGradient id="SVGID_36_" gradientUnits="userSpaceOnUse" x1="403.0338" y1="409.0849" x2="503.3037" y2="483.0949" gradientTransform="matrix(1 0 0 -1 0 722)">
				<stop  offset="0" style="stop-color:#FCDAFF"/>
				<stop  offset="0.56" style="stop-color:#9B44CD"/>
				<stop  offset="1" style="stop-color:#AE77D4"/>
			</linearGradient>
			<path class="st41" d="M460.3,287.8c-1.2-1.6-2.6-2.9-4.4-3.9l0,0c-2.2-8.7-6.2-16.8-11.8-23.9c-7.5-4-36.2-3.4-46.4,18.9
				s24.2,49.1,41.5,46.8c16.1-2.1,19.5-16.2,18.3-31.4C459.9,293.9,461.4,289.6,460.3,287.8z"/>
			<path class="st42" d="M457.4,288c-1.2-1.6-2.7-2.9-4.4-3.9l0,0c-2.2-8.7-6.2-16.8-11.8-23.9c-7.5-4-36.2-3.4-46.4,18.9
				s24.2,49.1,41.5,46.8c16.1-2.1,20.8-15.8,19.6-31C457.6,293.3,458.5,289.9,457.4,288z"/>
			
				<linearGradient id="SVGID_37_" gradientUnits="userSpaceOnUse" x1="479.7829" y1="455.7441" x2="417.5529" y2="425.0941" gradientTransform="matrix(1 0 0 -1 0 722)">
				<stop  offset="0" style="stop-color:#B448FF"/>
				<stop  offset="0.53" style="stop-color:#260AAD"/>
				<stop  offset="1" style="stop-color:#3750FF"/>
			</linearGradient>
			<path class="st43" d="M413.9,259c0,0,14.4-5.6,23-3.5s11.7,10.9,11.7,10.9s-14.8-1.5-17.6,11s-2.7,34.1,8.3,48.2
				c1.5,1.9-14.2-11.3-17.4-11.4C413.2,313.9,402.3,271.3,413.9,259z"/>
			<g>
				<ellipse class="st44" cx="449.6" cy="281.2" rx="1.7" ry="2.3"/>
				<path class="st45" d="M447.1,273.5c0,0-5.4-0.9-5,5"/>
				<path class="st45" d="M454.9,303c0,0-2.7,3.6-6.6,2"/>
			</g>
		</g>
		<g>
			<g>
				
					<linearGradient id="SVGID_38_" gradientUnits="userSpaceOnUse" x1="535.3616" y1="341.7617" x2="497.6817" y2="317.6317" gradientTransform="matrix(1 0 0 -1 0 722)">
					<stop  offset="0.14" style="stop-color:#252345"/>
					<stop  offset="0.37" style="stop-color:#262448"/>
					<stop  offset="0.57" style="stop-color:#272853"/>
					<stop  offset="0.76" style="stop-color:#2A2F65"/>
					<stop  offset="0.93" style="stop-color:#2D387E"/>
					<stop  offset="1" style="stop-color:#2F3C89"/>
				</linearGradient>
				<path class="st46" d="M517.8,390.8c0,0,1.5-5.8,2-6.4s4.9-4.2,6.9-3.9s1.8,0.9,1.4,2.1c-0.5,1.1-1,2.1-1.6,3
					c0,0,5.9-3.9,6.9-4.3s5.4-2.5,7-1.2s-5.5,4.4-5.5,4.4s-11,9.8-13.1,10.6C518.3,396.5,516.3,393.8,517.8,390.8z"/>
				
					<linearGradient id="SVGID_39_" gradientUnits="userSpaceOnUse" x1="551.4752" y1="335.7619" x2="481.3651" y2="290.8719" gradientTransform="matrix(1 0 0 -1 0 722)">
					<stop  offset="0.14" style="stop-color:#252345"/>
					<stop  offset="0.37" style="stop-color:#262448"/>
					<stop  offset="0.57" style="stop-color:#272853"/>
					<stop  offset="0.76" style="stop-color:#2A2F65"/>
					<stop  offset="0.93" style="stop-color:#2D387E"/>
					<stop  offset="1" style="stop-color:#2F3C89"/>
				</linearGradient>
				<path class="st47" d="M514.7,399.4l18.9-17.2c0,0,12.2-3.8,12.9-3.9c1.9-0.2,3.7-0.7,5.2,0.5c1.2,1,0.3,1.8-1.1,2.8
					c-1.1,0.8-5.6,4.7-5.6,4.7s5.5-3.3,7-3.5s2.7-0.8,4.3-0.5c3.2,0.5,2.8,1.4,2.5,2.1s-9.4,7.1-9.4,7.1l1.4,0.7
					c2.2-0.5,4.4-0.9,6.6-1.2c1.3,0.2,2.2,1.3,2.2,2.5c-0.2,0.6-9,5.5-9,5.5c-2,3-4.5,5.6-7.3,7.9c-4.4,3.5-23.3,6.4-23.3,6.4
					S510.3,403.5,514.7,399.4z"/>
			</g>
			
				<radialGradient id="SVGID_40_" cx="497.77" cy="479.33" r="122.43" gradientTransform="matrix(1 0 0 -1 0 722)" gradientUnits="userSpaceOnUse">
				<stop  offset="4.000000e-02" style="stop-color:#C361C6"/>
				<stop  offset="1" style="stop-color:#C361C6;stop-opacity:0"/>
			</radialGradient>
			<path class="st48" d="M423.9,249.5c0,0,6.5-6.8,23.2,0c16.7,6.8,33.8,61.5,7.8,79.5c0,0-29.2,0.9-35.1-31S418,253.7,423.9,249.5z
				"/>
			
				<radialGradient id="SVGID_41_" cx="499.27" cy="453.54" r="75.66" gradientTransform="matrix(1 0 0 -1 0 722)" gradientUnits="userSpaceOnUse">
				<stop  offset="0" style="stop-color:#FFFFFF"/>
				<stop  offset="0.12" style="stop-color:#FFFFFF;stop-opacity:0.81"/>
				<stop  offset="0.3" style="stop-color:#FFFFFF;stop-opacity:0.57"/>
				<stop  offset="0.48" style="stop-color:#FFFFFF;stop-opacity:0.37"/>
				<stop  offset="0.64" style="stop-color:#FFFFFF;stop-opacity:0.21"/>
				<stop  offset="0.78" style="stop-color:#FFFFFF;stop-opacity:9.000000e-02"/>
				<stop  offset="0.91" style="stop-color:#FFFFFF;stop-opacity:2.000000e-02"/>
				<stop  offset="1" style="stop-color:#FFFFFF;stop-opacity:0"/>
			</radialGradient>
			<path class="st49" d="M465.5,303c2-14.1-6.1-34.3-18.5-53.5c16.7,6.8,33.8,61.5,7.8,79.5C454.8,329,462.7,320.6,465.5,303z"/>
			
				<linearGradient id="SVGID_42_" gradientUnits="userSpaceOnUse" x1="518.568" y1="375.7827" x2="0.438" y2="1.6627" gradientTransform="matrix(1 0 0 -1 0 722)">
				<stop  offset="0" style="stop-color:#B448FF"/>
				<stop  offset="0.53" style="stop-color:#260AAD"/>
				<stop  offset="1" style="stop-color:#3750FF"/>
			</linearGradient>
			<path class="st50" d="M520.2,392.8c-9.1-7.7-16.9-1.9-25.4,2.1s-22,6.9-22,6.9s-17.9-38.3-20.6-44.4c-1.6-3.7-4.3-12-10-16.8
				c-6.4-8.5-15.2-17-24.7-21.3c-17.8-8-41.9-6.2-51.5-1.2S293,366.9,293,366.9c-8.1,5.6-8.9,11.6-10.8,23
				c-10.2,10.5-11.5,20.3-11.1,38.7c0.5,21.2-4.1,61.8-4.1,61.8l-64.2,42.4c0,0-16.4-0.9-20.5,4.6s-3.2,23.7,9.6,36.5
				s18.3,18.2,28.3,13.2s7.8-11.8,7.8-11.8s67.9-37.8,77.5-44.2c3.8-2.5,7.2-7.2,10.4-13.5l0.5,10.8l-25,45.2
				c0,0-15.8,6.1-22.1,19.8s5.2,23.8,17.3,36.4c10.2,10.5,25.7,9.6,39-1.9c9.5-8.2,5.5-24.1,5.5-24.1s39-51.1,41.2-59.8
				S383,531,384.4,515c1-11.8,4.2-50.1,5.3-71.1c5.2-3.6,12.7-23.1,17.2-26.6c6-4.9,11.7-10.2,17-15.9c9.6,14.6,25.1,38.3,25.1,38.3
				s0.6,4,7.6,5.8s58.7-23.4,58.7-23.4s10.3-1.8,14-6.7S529.3,400.5,520.2,392.8z"/>
			
				<linearGradient id="SVGID_43_" gradientUnits="userSpaceOnUse" x1="457.1181" y1="432.2153" x2="319.0481" y2="421.8953" gradientTransform="matrix(1 0 0 -1 0 722)">
				<stop  offset="0" style="stop-color:#B448FF"/>
				<stop  offset="0.53" style="stop-color:#260AAD"/>
				<stop  offset="1" style="stop-color:#3750FF"/>
			</linearGradient>
			<path class="st51" d="M381.9,311.5c-5.5-20.7-7.9-42.3-2.5-49c9.7-12.1,19.4-13.7,27.1-16.2s30.2,0.3,30.2,0.3
				s-16.2,1.8-16.2,10.3c0,8.5,2.4,50.1,5.5,55s28.9,17.1,28.9,17.1c-5.8,7.7-15.5,11.5-24.9,9.7
				C421.5,337.2,387.4,332.2,381.9,311.5z"/>
			
				<linearGradient id="SVGID_44_" gradientUnits="userSpaceOnUse" x1="380.9963" y1="382.5349" x2="438.8663" y2="453.6249" gradientTransform="matrix(1 0 0 -1 0 722)">
				<stop  offset="4.000000e-02" style="stop-color:#190D84"/>
				<stop  offset="1" style="stop-color:#190D84;stop-opacity:0"/>
			</linearGradient>
			<path class="st52" d="M381.9,311.5c-5.5-20.7-7.9-42.3-2.5-49c9.7-12.1,19.4-13.7,27.1-16.2c-15.8,12.3-9.7,27-8.4,36.6
				c2.7,18.7,11,29.7,20.5,37s23,15,30.6,14.5c-5.6,4-12.6,5.5-19.3,4.2C421.5,337.2,387.4,332.2,381.9,311.5z"/>
			
				<linearGradient id="SVGID_45_" gradientUnits="userSpaceOnUse" x1="433.0291" y1="325.6133" x2="407.0491" y2="318.5933" gradientTransform="matrix(1 0 0 -1 0 722)">
				<stop  offset="4.000000e-02" style="stop-color:#190D84"/>
				<stop  offset="1" style="stop-color:#190D84;stop-opacity:0"/>
			</linearGradient>
			<path class="st53" d="M423.9,401.4l-9.1,9.1c0,0-9.1-5.7,2.1-18.9L423.9,401.4z"/>
			
				<linearGradient id="SVGID_46_" gradientUnits="userSpaceOnUse" x1="199.9897" y1="281.5479" x2="433.2797" y2="249.8979" gradientTransform="matrix(1 0 0 -1 0 722)">
				<stop  offset="4.000000e-02" style="stop-color:#190D84"/>
				<stop  offset="1" style="stop-color:#190D84;stop-opacity:0"/>
			</linearGradient>
			<path class="st54" d="M422.3,339.1c0,0,1-20.6-33.1-14c-19.2,3.7-96.2,41.8-96.2,41.8c-8.1,5.6-8.9,11.6-10.8,23
				c-10.2,10.5-11.5,20.3-11.1,38.7c0.5,21.2-4.1,61.8-4.1,61.8l-64.2,42.4c0,0-16.4-0.9-20.5,4.6s-3.2,23.7,9.6,36.5
				c5.7,5.7,17.3,16.6,21.2,10.4c1.5-2.5,3-11.5-0.5-26.4c-1.9-8.2-8.8-13.8-6-15.2c10-5,72-53,72-53s6.8-58.4,19.6-69
				s17.9-18.9,45.2-25.1S422.3,339.1,422.3,339.1z"/>
			
				<linearGradient id="SVGID_47_" gradientUnits="userSpaceOnUse" x1="286.3821" y1="96.1447" x2="318.7321" y2="150.6047" gradientTransform="matrix(1 0 0 -1 0 722)">
				<stop  offset="4.000000e-02" style="stop-color:#190D84"/>
				<stop  offset="0.54" style="stop-color:#190D84;stop-opacity:0"/>
			</linearGradient>
			<path class="st55" d="M270.6,594.7c0,0,15.4-11.5,31.1,0s16.4,26.8,17,29.8s-1.5,16.1-15.5,9.4S261,614.2,270.6,594.7z"/>
			
				<linearGradient id="SVGID_48_" gradientUnits="userSpaceOnUse" x1="419.1341" y1="268.3651" x2="530.5541" y2="373.4051" gradientTransform="matrix(1 0 0 -1 0 722)">
				<stop  offset="4.000000e-02" style="stop-color:#190D84"/>
				<stop  offset="1" style="stop-color:#190D84;stop-opacity:0"/>
			</linearGradient>
			<path class="st56" d="M449,439.7c0,0-29-44.3-32.1-49.2s25.9,24.2,29.1,30s24.6,11,24.6,11s33-8.9,44.7-18.5
				c6.1-5,9.4-4.9,10.2-5c1.3-0.2-5.5-7.9-5.3-15.3c9.2,7.6,12.8,17.8,9.1,22.7s-14,6.7-14,6.7s-51.7,25.2-58.7,23.4
				S449,439.7,449,439.7z"/>
			<g>
				
					<linearGradient id="SVGID_49_" gradientUnits="userSpaceOnUse" x1="344.2587" y1="404.7377" x2="295.3887" y2="333.1577" gradientTransform="matrix(1 0 0 -1 0 722)">
					<stop  offset="0" style="stop-color:#D073CC"/>
					<stop  offset="0.41" style="stop-color:#B842B8"/>
					<stop  offset="1" style="stop-color:#1D0074"/>
				</linearGradient>
				<path class="st57" d="M271.6,351.2c0,0-4.6-0.6,0.2,13.6c4.6,13.7,6.6,19.6,10.5,20.3s59.1,3.1,64,2.4c4.1-0.6-4.1-25.3-7-33.9
					c-0.6-1.7-2.2-2.9-4-2.9L271.6,351.2z"/>
				<path class="st58" d="M271.6,351.2c0,0-4.6-0.6,0.2,13.6c4.6,13.7,6.6,19.6,10.5,20.3s59.1,3.1,64,2.4c4.1-0.6-4.1-25.3-7-33.9
					c-0.6-1.7-2.2-2.9-4-2.9L271.6,351.2z"/>
				
					<linearGradient id="SVGID_50_" gradientUnits="userSpaceOnUse" x1="365.2619" y1="434.5887" x2="396.6319" y2="247.3186" gradientTransform="matrix(1 0 0 -1 0 722)">
					<stop  offset="0" style="stop-color:#D073CC"/>
					<stop  offset="0.41" style="stop-color:#B842B8"/>
					<stop  offset="1" style="stop-color:#1D0074"/>
				</linearGradient>
				<path class="st59" d="M340.9,354l60.1-41.7c2.6-1.9,5.7-4.7,6.2-1.6c1.2,7.2,3,21.8,3.3,27.9c0.1,1.4-0.6,2.8-1.7,3.6
					c-9.8,7.5-58.9,45.1-61.4,45.2c-2.8,0.1-1.1,0-1.1,0s-3.4-13-7.2-28.9C338.7,356.8,339.4,355,340.9,354z"/>
				
					<linearGradient id="SVGID_51_" gradientUnits="userSpaceOnUse" x1="487.6306" y1="464.9687" x2="214.9607" y2="331.6987" gradientTransform="matrix(1 0 0 -1 0 722)">
					<stop  offset="0" style="stop-color:#D073CC"/>
					<stop  offset="0.41" style="stop-color:#B842B8"/>
					<stop  offset="1" style="stop-color:#1D0074"/>
				</linearGradient>
				<path class="st60" d="M340.9,354.5l61.7-40.6c3.1-2.1,7.3-4.6,0.9-5.1l-66.4-3.4c-0.9-0.1-1.8,0.2-2.5,0.7l-62.9,44.4
					c-1.7,1.8-2.2,2.8,1.7,2.9l65.2,1.8C339.3,355.2,340.2,355,340.9,354.5z"/>
				<path class="st58" d="M340.9,354.5c0,0-34-6.1-15.7-20.1c13.4-10.3,11.9-29,11.9-29c-0.9-0.1-1.8,0.2-2.5,0.7l-62.9,44.4
					c-1.7,1.8-2.2,2.8,1.7,2.9l65.2,1.8C339.3,355.2,340.2,355,340.9,354.5z"/>
			</g>
			
				<linearGradient id="SVGID_52_" gradientUnits="userSpaceOnUse" x1="367.3302" y1="311.5225" x2="60.2502" y2="333.3524" gradientTransform="matrix(1 0 0 -1 0 722)">
				<stop  offset="0" style="stop-color:#D073CC"/>
				<stop  offset="0.41" style="stop-color:#B842B8"/>
				<stop  offset="1" style="stop-color:#1D0074"/>
			</linearGradient>
			<path class="st61" d="M136,467.5c-23.2,0-38.8-4.7-46.5-14c-4.4-5.3-6-12.2-4.6-19.7c2.7-13.8,11.2-25.8,19.6-37.4
				c11.2-15.6,21.8-30.4,16-47.4c-9.2-27.4-38.1-36.3-85.9-26.5l-0.6-2.9c49.5-10.2,79.6-0.6,89.3,28.5c6.2,18.5-4.8,33.9-16.5,50.1
				c-8.1,11.3-16.5,23-19,36.2c-1.3,6.8,0,12.6,3.9,17.2c7.1,8.5,22.7,13,45.2,12.9c41.1-0.2,80.2-28.8,106.2-47.7
				c4.3-3.1,8.4-6.1,11.9-8.5c20.9-14.3,47.2-24.6,53.6-27c0.8-0.3,1.6,0.1,1.9,0.9c0,0,0,0,0,0l0,0c0.3,0.8-0.1,1.6-0.9,1.9
				c0,0,0,0,0,0c-6.2,2.3-32.3,12.5-53,26.7c-3.5,2.4-7.6,5.4-11.9,8.5c-26.2,19.1-65.9,48-107.9,48.3L136,467.5z"/>
			
				<linearGradient id="SVGID_53_" gradientUnits="userSpaceOnUse" x1="316.0378" y1="163.5479" x2="222.6178" y2="259.2379" gradientTransform="matrix(1 0 0 -1 0 722)">
				<stop  offset="4.000000e-02" style="stop-color:#190D84"/>
				<stop  offset="1" style="stop-color:#190D84;stop-opacity:0"/>
			</linearGradient>
			<path class="st62" d="M315.8,517.5v-66.3c0,0-13.5-3.9-19.1-8.2c0,0,4.9,13.9,9.9,18.9c0,0-4.2,35.1-6.2,39.9
				s-10.9,20.5-10.9,20.5l-59.2,43.3c-1.1,3.1-1.9,6.3-2.3,9.6c5.8-3.2,67.2-38,67.2-38s10.2-5.3,12.9-8.3S313,524.7,315.8,517.5z"
				/>
			<g>
				
					<linearGradient id="SVGID_54_" gradientUnits="userSpaceOnUse" x1="317.37" y1="96.8101" x2="256.11" y2="72.9301" gradientTransform="matrix(1 0 0 -1 0 722)">
					<stop  offset="0" style="stop-color:#D073CC"/>
					<stop  offset="0.41" style="stop-color:#B842B8"/>
					<stop  offset="1" style="stop-color:#1D0074"/>
				</linearGradient>
				<path class="st63" d="M289,682.8c0,0,12.1-2.3,17.8-8.6s2-24.5,2-24.5l-2.8-16.1c0,0,3.8-3.8,4.2-5.8s-8.4-28.6-15.1-31
					s-20.8-2.1-20.8-2.1l-19.5,15L289,682.8z"/>
				
					<linearGradient id="SVGID_55_" gradientUnits="userSpaceOnUse" x1="295.432" y1="84.8448" x2="250.012" y2="67.1449" gradientTransform="matrix(1 0 0 -1 0 722)">
					<stop  offset="0.14" style="stop-color:#252345"/>
					<stop  offset="0.37" style="stop-color:#262448"/>
					<stop  offset="0.57" style="stop-color:#272853"/>
					<stop  offset="0.76" style="stop-color:#2A2F65"/>
					<stop  offset="0.93" style="stop-color:#2D387E"/>
					<stop  offset="1" style="stop-color:#2F3C89"/>
				</linearGradient>
				<path class="st64" d="M277.4,610c-3.4-1.6-19.6-3.3-22.6-0.2s-0.1,21.3,3.6,28c3.7,6.7,4.9,23.1,7.3,30.4s14.1,16.8,23.4,14.6
					c17.5-4.3,5.5-12.5,1.6-35.8C289.7,641.9,283.5,612.8,277.4,610z"/>
			</g>
			
				<linearGradient id="SVGID_56_" gradientUnits="userSpaceOnUse" x1="319.7891" y1="202.9115" x2="361.7191" y2="198.3515" gradientTransform="matrix(1 0 0 -1 0 722)">
				<stop  offset="4.000000e-02" style="stop-color:#190D84"/>
				<stop  offset="1" style="stop-color:#190D84;stop-opacity:0"/>
			</linearGradient>
			<path class="st65" d="M318.7,524.6c0,0,7.9-8.5,10.9-9.7s22.2,6.4,24.6,11.5C354.3,526.4,323.4,523.6,318.7,524.6z"/>
			
				<linearGradient id="SVGID_57_" gradientUnits="userSpaceOnUse" x1="291.6698" y1="213.1097" x2="262.1097" y2="243.3898" gradientTransform="matrix(1 0 0 -1 0 722)">
				<stop  offset="4.000000e-02" style="stop-color:#190D84"/>
				<stop  offset="1" style="stop-color:#190D84;stop-opacity:0"/>
			</linearGradient>
			<path class="st66" d="M267.1,490.3c0,0,7.4-2.5,11.5-0.7s9.1,11.2,9.1,11.2L267.1,490.3z"/>
			
				<linearGradient id="SVGID_58_" gradientUnits="userSpaceOnUse" x1="248.755" y1="138.2869" x2="146.975" y2="122.8169" gradientTransform="matrix(1 0 0 -1 0 722)">
				<stop  offset="0" style="stop-color:#D073CC"/>
				<stop  offset="0.41" style="stop-color:#B842B8"/>
				<stop  offset="1" style="stop-color:#1D0074"/>
			</linearGradient>
			<path class="st67" d="M181.4,545.6c2.6-1.2,8-1.5,10.7-0.8c4.9,1.2,12.7,4.7,15,8c3.6,5.2,4,22,4,22s-3.5,23-3.2,27.6
				s3.1,12.6,0.6,23.5c-4,13-20.1,15.8-22.2,16.1s-15.6,1.2-20.9-14s-4.9-43.5-4.9-43.5s-6-21.3-0.1-26.7
				C164.7,553.8,175.5,548.4,181.4,545.6z"/>
			
				<linearGradient id="SVGID_59_" gradientUnits="userSpaceOnUse" x1="216.1783" y1="129.4614" x2="152.3783" y2="119.7613" gradientTransform="matrix(1 0 0 -1 0 722)">
				<stop  offset="0.14" style="stop-color:#252345"/>
				<stop  offset="0.37" style="stop-color:#262448"/>
				<stop  offset="0.57" style="stop-color:#272853"/>
				<stop  offset="0.76" style="stop-color:#2A2F65"/>
				<stop  offset="0.93" style="stop-color:#2D387E"/>
				<stop  offset="1" style="stop-color:#2F3C89"/>
			</linearGradient>
			<path class="st68" d="M189.9,565.3c1.4,10.3,3,35.8,3.3,40.4c6.7,36.3-4.6,35.8-6.7,36.2s-15.6,1.2-20.9-14s-4.9-43.5-4.9-43.5
				s-6-21.3-0.1-26.7S188.4,555,189.9,565.3z"/>
			
				<linearGradient id="SVGID_60_" gradientUnits="userSpaceOnUse" x1="306.351" y1="107.6839" x2="288.601" y2="104.9838" gradientTransform="matrix(1 0 0 -1 0 722)">
				<stop  offset="0.14" style="stop-color:#252345"/>
				<stop  offset="0.37" style="stop-color:#262448"/>
				<stop  offset="0.57" style="stop-color:#272853"/>
				<stop  offset="0.76" style="stop-color:#2A2F65"/>
				<stop  offset="0.93" style="stop-color:#2D387E"/>
				<stop  offset="1" style="stop-color:#2F3C89"/>
			</linearGradient>
			<path class="st69" d="M289.8,609.6l3.7-4.2c0,0,7,11.8,8.2,19l-4,2.2C296.1,621.4,289.8,609.6,289.8,609.6z"/>
			
				<linearGradient id="SVGID_61_" gradientUnits="userSpaceOnUse" x1="300.7787" y1="103.7188" x2="283.7587" y2="101.1288" gradientTransform="matrix(1 0 0 -1 0 722)">
				<stop  offset="0.14" style="stop-color:#252345"/>
				<stop  offset="0.37" style="stop-color:#262448"/>
				<stop  offset="0.57" style="stop-color:#272853"/>
				<stop  offset="0.76" style="stop-color:#2A2F65"/>
				<stop  offset="0.93" style="stop-color:#2D387E"/>
				<stop  offset="1" style="stop-color:#2F3C89"/>
			</linearGradient>
			<path class="st70" d="M284.9,614l3.9-3.8c0,0,6.1,11.6,7.4,17.2l-4,2.1C290.6,624.4,284.9,614,284.9,614z"/>
			
				<linearGradient id="SVGID_62_" gradientUnits="userSpaceOnUse" x1="265.7328" y1="163.9199" x2="248.2729" y2="161.2598" gradientTransform="matrix(0.9585 0.2852 0.2852 -0.9585 -87.0531 650.3633)">
				<stop  offset="0.14" style="stop-color:#252345"/>
				<stop  offset="0.37" style="stop-color:#262448"/>
				<stop  offset="0.57" style="stop-color:#272853"/>
				<stop  offset="0.76" style="stop-color:#2A2F65"/>
				<stop  offset="0.93" style="stop-color:#2D387E"/>
				<stop  offset="1" style="stop-color:#2F3C89"/>
			</linearGradient>
			<path class="st71" d="M200.2,559.4l4.8-3c0,0,2.2,13.4,2.2,20.9l-3.8,1.6C202.8,573.1,200.2,559.4,200.2,559.4z"/>
			
				<linearGradient id="SVGID_63_" gradientUnits="userSpaceOnUse" x1="262.5086" y1="159.9624" x2="243.1486" y2="157.0224" gradientTransform="matrix(0.9585 0.2852 0.2852 -0.9585 -87.0531 650.3633)">
				<stop  offset="0.14" style="stop-color:#252345"/>
				<stop  offset="0.37" style="stop-color:#262448"/>
				<stop  offset="0.57" style="stop-color:#272853"/>
				<stop  offset="0.76" style="stop-color:#2A2F65"/>
				<stop  offset="0.93" style="stop-color:#2D387E"/>
				<stop  offset="1" style="stop-color:#2F3C89"/>
			</linearGradient>
			<path class="st72" d="M194.2,562.2l4.8-2.6c0,0,2.7,13.9,3.3,19.7l-4.5,1.5C196.6,574.5,194.2,562.2,194.2,562.2z"/>
			
				<linearGradient id="SVGID_64_" gradientUnits="userSpaceOnUse" x1="412.4666" y1="243.4778" x2="361.0266" y2="323.6378" gradientTransform="matrix(1 0 0 -1 0 722)">
				<stop  offset="4.000000e-02" style="stop-color:#190D84"/>
				<stop  offset="1" style="stop-color:#190D84;stop-opacity:0"/>
			</linearGradient>
			<path class="st73" d="M391.2,434.4c0,0-1.9-7.5-6.9-11.9s-0.4,6.7-0.4,6.7s-14-10.3-17.5-10.4s19.1,19,22.4,19.5
				S391.2,434.4,391.2,434.4z"/>
			
				<linearGradient id="SVGID_65_" gradientUnits="userSpaceOnUse" x1="274.4793" y1="148.897" x2="334.1693" y2="134.767" gradientTransform="matrix(1 0 0 -1 0 722)">
				<stop  offset="4.000000e-02" style="stop-color:#190D84"/>
				<stop  offset="1" style="stop-color:#190D84;stop-opacity:0"/>
			</linearGradient>
			<path class="st74" d="M290.6,575.8c0,0,11.2-8,19.6-5.5c11.1,3.3,15,11.5,15,11.5l-12.1-2.9c0.2,4.1,1.1,8.2,2.6,12
				c0.3,0.8,0.5,1.5,0.7,2.3C317.7,599.8,306.8,575,290.6,575.8z"/>
			
				<linearGradient id="SVGID_66_" gradientUnits="userSpaceOnUse" x1="210.9771" y1="184.9008" x2="235.8071" y2="168.2108" gradientTransform="matrix(1 0 0 -1 0 722)">
				<stop  offset="4.000000e-02" style="stop-color:#190D84"/>
				<stop  offset="0.54" style="stop-color:#190D84;stop-opacity:0"/>
			</linearGradient>
			<path class="st75" d="M210.2,536.5c-0.5-0.4-0.6-1.2-0.1-1.7c0.2-0.3,0.6-0.4,0.9-0.4c2.1-0.1,4.2,0,6.2,0.3
				c5.5,0.7,11.2,9.8,11.2,9.8l-7.5-5c0,0,2,8.2,0.9,12.6C221.8,551.9,215.6,541.1,210.2,536.5z"/>
			
				<linearGradient id="SVGID_67_" gradientUnits="userSpaceOnUse" x1="484.216" y1="323.3846" x2="473.426" y2="314.2047" gradientTransform="matrix(1 0 0 -1 0 722)">
				<stop  offset="4.000000e-02" style="stop-color:#190D84"/>
				<stop  offset="1" style="stop-color:#190D84;stop-opacity:0"/>
			</linearGradient>
			<path class="st76" d="M472.8,401.8c1.9,2.4,3.7,5,5.2,7.8c0.2,0.3,0.5,0.4,0.8,0.2c0.2-0.1,0.3-0.3,0.3-0.5
				c-0.1-2.4-0.6-6.2-3-8.2L472.8,401.8z"/>
			
				<linearGradient id="SVGID_68_" gradientUnits="userSpaceOnUse" x1="451.9294" y1="303.336" x2="397.8794" y2="387.556" gradientTransform="matrix(1 0 0 -1 0 722)">
				<stop  offset="4.000000e-02" style="stop-color:#190D84"/>
				<stop  offset="1" style="stop-color:#190D84;stop-opacity:0"/>
			</linearGradient>
			<path class="st77" d="M422.3,343.8c0,0-7.5,10.3-9.5,20.7c-1.6,7.9,0,21.9,0,21.9c-4.7-6.1-6.4-14-4.8-21.6
				C411.3,348.4,422.3,343.8,422.3,343.8z"/>
			
				<linearGradient id="SVGID_69_" gradientUnits="userSpaceOnUse" x1="377.5315" y1="419.7792" x2="352.5315" y2="375.2692" gradientTransform="matrix(1 0 0 -1 0 722)">
				<stop  offset="4.000000e-02" style="stop-color:#190D84"/>
				<stop  offset="1" style="stop-color:#190D84;stop-opacity:0"/>
			</linearGradient>
			<polygon class="st78" points="359.2,313.6 353.1,318.3 378.4,320.6 385.5,315.5 			"/>
			
				<linearGradient id="SVGID_70_" gradientUnits="userSpaceOnUse" x1="367.1327" y1="412.0885" x2="340.6727" y2="364.9985" gradientTransform="matrix(1 0 0 -1 0 722)">
				<stop  offset="4.000000e-02" style="stop-color:#190D84"/>
				<stop  offset="1" style="stop-color:#190D84;stop-opacity:0"/>
			</linearGradient>
			<polygon class="st79" points="350,321.3 342,327.3 366.8,329.3 374.8,323.5 			"/>
			
				<linearGradient id="SVGID_71_" gradientUnits="userSpaceOnUse" x1="366.5146" y1="405.0908" x2="299.5246" y2="364.3108" gradientTransform="matrix(1.0218 3.049838e-03 8.665921e-02 -0.9669 -57.39 699.5234)">
				<stop  offset="0" style="stop-color:#B24EE5"/>
				<stop  offset="0.1" style="stop-color:#AC4CE7"/>
				<stop  offset="0.24" style="stop-color:#9C46EB"/>
				<stop  offset="0.39" style="stop-color:#813CF2"/>
				<stop  offset="0.55" style="stop-color:#5B2FFC"/>
				<stop  offset="0.56" style="stop-color:#582EFD"/>
				<stop  offset="0.67" style="stop-color:#4B36FE"/>
				<stop  offset="0.86" style="stop-color:#3B40FF"/>
				<stop  offset="1" style="stop-color:#3543FF"/>
			</linearGradient>
			<path class="st80" d="M334.9,312.1c5.3-1.9,10.5-1.1,11.5,1.7c1,2.9-2.4,6.8-7.8,8.7c-5.3,1.9-10.5,1.1-11.5-1.7
				C326.1,317.9,329.6,314,334.9,312.1z"/>
		</g>
	</g>
</g>
</svg>
